<mxfile host="app.diagrams.net" modified="2024-01-19T22:23:53.500Z" agent="Mozilla/5.0 (Windows NT 10.0; Win64; x64) AppleWebKit/537.36 (KHTML, like Gecko) Chrome/120.0.0.0 Safari/537.36" version="22.1.17" etag="Zav-khZsqM_tw1_ESVj1" type="github">
  <diagram name="Page-1" id="DBbhH1fyEOL2zr9KewBM">
    <mxGraphModel>
      <root>
        <mxCell id="0" />
        <mxCell id="1" parent="0" />
      </root>
    </mxGraphModel>
  </diagram>
</mxfile>
